<svg xmlns="http://www.w3.org/2000/svg" xmlns:xlink="http://www.w3.org/1999/xlink" width="1260" zoomAndPan="magnify" viewBox="0 0 944.88 525.000007" height="700" preserveAspectRatio="xMidYMid meet" version="1.0"><defs><clipPath id="199d6ccf64"><path d="M 435 164 L 554 164 L 554 364 L 435 364 Z M 435 164 " clip-rule="nonzero"/></clipPath><clipPath id="4b318e559d"><path d="M 394.792969 335.589844 L 477.015625 141.976562 L 587.257812 188.792969 L 505.035156 382.40625 Z M 394.792969 335.589844 " clip-rule="nonzero"/></clipPath><clipPath id="63c3acaadd"><path d="M 394.792969 335.589844 L 477.015625 141.976562 L 587.257812 188.792969 L 505.035156 382.40625 Z M 394.792969 335.589844 " clip-rule="nonzero"/></clipPath></defs><g clip-path="url(#199d6ccf64)"><g clip-path="url(#4b318e559d)"><g clip-path="url(#63c3acaadd)"><path fill="#ffffff" d="M 468.898438 243.984375 C 468.917969 243.933594 468.902344 243.898438 468.847656 243.878906 C 462.8125 241.765625 456.800781 239.570312 450.882812 237.128906 C 449.261719 236.460938 447.761719 235.753906 446.382812 235.007812 C 442.875 233.105469 439.691406 229.859375 441.644531 225.515625 C 442.558594 223.496094 444.304688 221.648438 446.117188 220.082031 C 447.554688 218.839844 449.273438 217.46875 451.269531 215.972656 C 455.597656 212.726562 459.949219 209.515625 464.328125 206.339844 C 472.917969 200.113281 481.546875 193.941406 490.21875 187.828125 C 490.820312 187.402344 491.414062 186.980469 491.996094 186.566406 C 501.554688 179.707031 508.289062 174.871094 516.613281 169.277344 C 518.71875 167.867188 520.734375 166.691406 522.667969 165.753906 C 524.144531 165.039062 526.074219 164.589844 527.707031 164.757812 C 532.496094 165.257812 534.78125 170.304688 536.082031 174.300781 C 536.992188 177.085938 537.816406 180.046875 538.5625 183.175781 C 542.75 200.753906 546.90625 218.648438 550.582031 236.039062 C 551.824219 241.925781 552.902344 248.074219 553.484375 254.164062 C 553.710938 256.523438 553.769531 259.03125 553.660156 261.695312 C 553.59375 263.359375 553.382812 264.898438 553.03125 266.3125 C 551.738281 271.53125 546.53125 272.28125 542.058594 271.65625 C 539.941406 271.363281 537.777344 270.863281 535.566406 270.152344 C 530.34375 268.46875 524.097656 266.183594 520.214844 264.761719 C 519.386719 264.460938 518.574219 264.242188 517.777344 264.109375 C 516.792969 263.945312 515.894531 264.238281 515.195312 264.921875 C 513.824219 266.257812 512.828125 268.121094 511.941406 269.847656 C 511.65625 270.402344 511.34375 271.058594 511 271.8125 C 509.632812 274.828125 508.328125 277.976562 507.082031 281.25 C 505.851562 284.488281 503.738281 289.992188 500.734375 297.761719 C 499.824219 300.125 497.699219 305.308594 494.367188 313.320312 C 491.625 319.914062 488.949219 326.828125 486.339844 334.0625 C 483.941406 340.699219 481.878906 347.441406 479.382812 354.046875 C 478.570312 356.199219 477.503906 358.558594 476.007812 360.265625 C 473.695312 362.902344 470.453125 363.683594 467.035156 363.488281 C 464.949219 363.367188 462.84375 363.035156 460.71875 362.484375 C 455.339844 361.101562 450.085938 359.058594 445.046875 356.738281 C 443.140625 355.855469 441.386719 354.902344 439.816406 353.523438 C 433.660156 348.140625 435.605469 339.8125 437.660156 333.046875 C 438.15625 331.40625 438.84375 329.269531 439.722656 326.632812 C 444.210938 313.140625 448.3125 301.136719 452.019531 290.625 C 452.265625 289.917969 452.507812 289.230469 452.734375 288.566406 C 455.03125 281.851562 457.339844 275.140625 459.65625 268.433594 C 462.503906 260.191406 465.714844 252.09375 468.898438 243.984375 Z M 468.898438 243.984375 " fill-opacity="1" fill-rule="nonzero"/></g></g></g></svg>