<svg xmlns="http://www.w3.org/2000/svg" xmlns:xlink="http://www.w3.org/1999/xlink" width="1260" zoomAndPan="magnify" viewBox="0 0 944.88 525.000007" height="700" preserveAspectRatio="xMidYMid meet" version="1.0"><defs><filter x="0%" y="0%" width="100%" height="100%" id="367042fcbe"><feColorMatrix values="0 0 0 0 1 0 0 0 0 1 0 0 0 0 1 0 0 0 1 0" color-interpolation-filters="sRGB"/></filter><g/><clipPath id="d22a09fe38"><path d="M 284 191.261719 L 373 191.261719 L 373 332.742188 L 284 332.742188 Z M 284 191.261719 " clip-rule="nonzero"/></clipPath><clipPath id="97b85b63ec"><path d="M 572 191.261719 L 661 191.261719 L 661 332.742188 L 572 332.742188 Z M 572 191.261719 " clip-rule="nonzero"/></clipPath><mask id="31bdcbb4be"><g filter="url(#367042fcbe)"><rect x="-94.488" width="1133.856" fill="#000000" y="-52.500001" height="630.000008" fill-opacity="0.2"/></g></mask><clipPath id="8d5f89f308"><rect x="0" width="260" y="0" height="356"/></clipPath></defs><g clip-path="url(#d22a09fe38)"><path fill="#ffffff" d="M 352.480469 191.605469 L 340.164062 192.839844 L 347.71875 268.230469 L 343.800781 268.625 L 336.332031 194.117188 C 334.613281 195.394531 333.582031 197.507812 333.8125 199.792969 L 346.535156 326.769531 C 346.878906 330.222656 349.960938 332.742188 353.417969 332.394531 L 366.457031 331.085938 C 369.910156 330.742188 372.429688 327.660156 372.085938 324.207031 L 359.363281 197.234375 C 359.015625 193.78125 355.9375 191.261719 352.480469 191.605469 Z M 321.066406 205.90625 L 312.671875 206.75 C 312.511719 206.761719 312.359375 206.792969 312.207031 206.816406 L 318.65625 271.144531 L 315.589844 271.449219 L 309.253906 208.191406 C 307.71875 209.484375 306.828125 211.484375 307.042969 213.628906 L 317.550781 318.519531 C 317.898438 321.972656 320.980469 324.492188 324.433594 324.148438 L 332.832031 323.304688 C 336.285156 322.960938 338.804688 319.878906 338.457031 316.425781 L 327.949219 211.535156 C 327.601562 208.078125 324.519531 205.558594 321.066406 205.90625 Z M 295.886719 222.84375 L 289.679688 223.46875 C 289.472656 223.492188 289.273438 223.523438 289.074219 223.5625 L 294.089844 273.605469 L 291.023438 273.914062 L 286.125 225.035156 C 284.679688 226.328125 283.84375 228.269531 284.050781 230.347656 L 291.699219 306.691406 C 292.046875 310.148438 295.128906 312.667969 298.582031 312.320312 L 304.792969 311.699219 C 308.246094 311.351562 310.765625 308.269531 310.421875 304.816406 L 302.769531 228.476562 C 302.425781 225.019531 299.34375 222.5 295.886719 222.84375 " fill-opacity="1" fill-rule="nonzero"/></g><path fill="#ffffff" d="M 576.15625 257.683594 C 491.648438 248.285156 419.164062 251.453125 368.574219 256.773438 L 369.863281 269.632812 C 419.792969 264.371094 491.375 261.242188 574.867188 270.539062 L 576.15625 257.683594 " fill-opacity="1" fill-rule="nonzero"/><g clip-path="url(#97b85b63ec)"><path fill="#ffffff" d="M 585.460938 197.234375 L 572.734375 324.207031 C 572.386719 327.660156 574.910156 330.742188 578.363281 331.085938 L 591.40625 332.394531 C 594.863281 332.742188 597.941406 330.222656 598.289062 326.769531 L 611.011719 199.792969 C 611.242188 197.507812 610.207031 195.394531 608.488281 194.117188 L 601.019531 268.625 L 597.101562 268.230469 L 604.65625 192.839844 L 592.339844 191.605469 C 588.886719 191.261719 585.804688 193.78125 585.460938 197.234375 Z M 616.875 211.535156 L 606.363281 316.425781 C 606.015625 319.878906 608.535156 322.960938 611.988281 323.304688 L 620.386719 324.148438 C 623.84375 324.492188 626.921875 321.972656 627.269531 318.519531 L 637.78125 213.628906 C 637.996094 211.484375 637.101562 209.484375 635.566406 208.191406 L 629.230469 271.449219 L 626.167969 271.144531 L 632.613281 206.816406 C 632.460938 206.792969 632.308594 206.761719 632.152344 206.75 L 623.753906 205.90625 C 620.300781 205.558594 617.21875 208.078125 616.875 211.535156 Z M 642.050781 228.476562 L 634.402344 304.816406 C 634.054688 308.269531 636.574219 311.351562 640.027344 311.699219 L 646.238281 312.320312 C 649.691406 312.667969 652.773438 310.148438 653.117188 306.691406 L 660.769531 230.347656 C 660.976562 228.269531 660.140625 226.328125 658.695312 225.035156 L 653.796875 273.914062 L 650.734375 273.605469 L 655.75 223.5625 C 655.550781 223.523438 655.347656 223.492188 655.140625 223.46875 L 648.933594 222.84375 C 645.476562 222.5 642.398438 225.019531 642.050781 228.476562 " fill-opacity="1" fill-rule="nonzero"/></g><g mask="url(#31bdcbb4be)"><g transform="matrix(1, 0, 0, 1, 343, 84)"><g clip-path="url(#8d5f89f308)"><g fill="#ffde59" fill-opacity="1"><g transform="translate(37.963177, 140.154767)"><g><path d="M 30.171875 1 C 21.566406 1 15.023438 -1.628906 10.546875 -6.890625 C 6.078125 -12.148438 3.84375 -19.539062 3.84375 -29.0625 L 3.84375 -79.859375 C 3.84375 -89.046875 6.078125 -95.976562 10.546875 -100.65625 C 15.023438 -105.332031 21.566406 -107.671875 30.171875 -107.671875 C 38.785156 -107.671875 45.328125 -105.332031 49.796875 -100.65625 C 54.265625 -95.976562 56.5 -89.046875 56.5 -79.859375 L 56.5 -29.0625 C 56.5 -19.457031 54.265625 -12.046875 49.796875 -6.828125 C 45.328125 -1.609375 38.785156 1 30.171875 1 Z M 30.171875 -18.625 C 32.078125 -18.625 33.359375 -19.453125 34.015625 -21.109375 C 34.679688 -22.765625 35.015625 -25.082031 35.015625 -28.0625 L 35.015625 -80.21875 C 35.015625 -82.539062 34.703125 -84.425781 34.078125 -85.875 C 33.460938 -87.320312 32.203125 -88.046875 30.296875 -88.046875 C 26.742188 -88.046875 24.96875 -85.359375 24.96875 -79.984375 L 24.96875 -27.9375 C 24.96875 -24.875 25.335938 -22.554688 26.078125 -20.984375 C 26.828125 -19.410156 28.191406 -18.625 30.171875 -18.625 Z M 30.171875 -18.625 "/></g></g></g><g fill="#ffde59" fill-opacity="1"><g transform="translate(98.315956, 140.154767)"><g><path d="M 4.34375 -90.90625 L 26.078125 -90.90625 L 26.078125 -79.359375 C 26.992188 -83.078125 28.566406 -86.097656 30.796875 -88.421875 C 33.035156 -90.742188 36.015625 -91.90625 39.734375 -91.90625 C 45.867188 -91.90625 50.40625 -90.019531 53.34375 -86.25 C 56.28125 -82.476562 57.75 -77.117188 57.75 -70.171875 L 57.75 0 L 36.390625 0 L 36.390625 -67.9375 C 36.390625 -69.914062 35.992188 -71.609375 35.203125 -73.015625 C 34.421875 -74.429688 33.203125 -75.140625 31.546875 -75.140625 C 29.304688 -75.140625 27.832031 -74.125 27.125 -72.09375 C 26.425781 -70.0625 26.078125 -67.347656 26.078125 -63.953125 L 26.078125 0 L 4.34375 0 Z M 4.34375 -90.90625 "/></g></g></g><g fill="#ffde59" fill-opacity="1"><g transform="translate(160.283078, 140.154767)"><g><path d="M 29.8125 1 C 20.445312 1 13.734375 -1.566406 9.671875 -6.703125 C 5.617188 -11.835938 3.59375 -19.5 3.59375 -29.6875 L 3.59375 -66.1875 C 3.59375 -74.550781 5.992188 -80.925781 10.796875 -85.3125 C 15.597656 -89.707031 22.304688 -91.90625 30.921875 -91.90625 C 48.390625 -91.90625 57.125 -83.332031 57.125 -66.1875 L 57.125 -59.609375 C 57.125 -52.984375 57.039062 -47.601562 56.875 -43.46875 L 25.328125 -43.46875 L 25.328125 -25.828125 C 25.328125 -22.679688 25.660156 -20.21875 26.328125 -18.4375 C 26.992188 -16.65625 28.398438 -15.765625 30.546875 -15.765625 C 32.203125 -15.765625 33.378906 -16.257812 34.078125 -17.25 C 34.785156 -18.25 35.203125 -19.390625 35.328125 -20.671875 C 35.453125 -21.960938 35.515625 -23.847656 35.515625 -26.328125 L 35.515625 -35.140625 L 57.125 -35.140625 L 57.125 -29.921875 C 57.125 -19.328125 55.070312 -11.523438 50.96875 -6.515625 C 46.875 -1.503906 39.820312 1 29.8125 1 Z M 35.515625 -54.265625 L 35.515625 -65.9375 C 35.515625 -72.476562 33.898438 -75.75 30.671875 -75.75 C 27.023438 -75.75 25.203125 -72.476562 25.203125 -65.9375 L 25.203125 -54.265625 Z M 35.515625 -54.265625 "/></g></g></g><g fill="#ffde59" fill-opacity="1"><g transform="translate(0.571863, 311.918272)"><g><path d="M 4.71875 0 L 4.71875 -106.671875 L 37.25 -106.671875 L 46.203125 -41.609375 L 55.140625 -106.671875 L 87.921875 -106.671875 L 87.921875 0 L 68.421875 0 L 68.421875 -76.875 L 56.125 0 L 37.015625 0 L 23.96875 -76.875 L 23.96875 0 Z M 4.71875 0 "/></g></g></g><g fill="#ffde59" fill-opacity="1"><g transform="translate(93.212125, 311.918272)"><g><path d="M 30.796875 1 C 12.660156 1 3.59375 -8.398438 3.59375 -27.203125 L 3.59375 -63.703125 C 3.59375 -72.316406 6.015625 -79.171875 10.859375 -84.265625 C 15.703125 -89.359375 22.347656 -91.90625 30.796875 -91.90625 C 39.242188 -91.90625 45.890625 -89.359375 50.734375 -84.265625 C 55.578125 -79.171875 58 -72.316406 58 -63.703125 L 58 -27.203125 C 58 -8.398438 48.929688 1 30.796875 1 Z M 30.796875 -15.765625 C 32.535156 -15.765625 33.816406 -16.382812 34.640625 -17.625 C 35.472656 -18.875 35.890625 -20.570312 35.890625 -22.71875 L 35.890625 -67.1875 C 35.890625 -72.488281 34.191406 -75.140625 30.796875 -75.140625 C 27.398438 -75.140625 25.703125 -72.488281 25.703125 -67.1875 L 25.703125 -22.71875 C 25.703125 -20.570312 26.113281 -18.875 26.9375 -17.625 C 27.769531 -16.382812 29.054688 -15.765625 30.796875 -15.765625 Z M 30.796875 -15.765625 "/></g></g></g><g fill="#ffde59" fill-opacity="1"><g transform="translate(154.930884, 311.918272)"><g><path d="M 4.34375 -90.90625 L 26.078125 -90.90625 L 26.078125 -80.84375 C 27.148438 -84.40625 29.03125 -87.15625 31.71875 -89.09375 C 34.414062 -91.039062 37.753906 -92.015625 41.734375 -92.015625 L 41.734375 -73.890625 C 38.660156 -73.890625 35.28125 -73.453125 31.59375 -72.578125 C 27.914062 -71.710938 26.078125 -70.703125 26.078125 -69.546875 L 26.078125 0 L 4.34375 0 Z M 4.34375 -90.90625 "/></g></g></g><g fill="#ffde59" fill-opacity="1"><g transform="translate(197.649694, 311.918272)"><g><path d="M 29.8125 1 C 20.445312 1 13.734375 -1.566406 9.671875 -6.703125 C 5.617188 -11.835938 3.59375 -19.5 3.59375 -29.6875 L 3.59375 -66.1875 C 3.59375 -74.550781 5.992188 -80.925781 10.796875 -85.3125 C 15.597656 -89.707031 22.304688 -91.90625 30.921875 -91.90625 C 48.390625 -91.90625 57.125 -83.332031 57.125 -66.1875 L 57.125 -59.609375 C 57.125 -52.984375 57.039062 -47.601562 56.875 -43.46875 L 25.328125 -43.46875 L 25.328125 -25.828125 C 25.328125 -22.679688 25.660156 -20.21875 26.328125 -18.4375 C 26.992188 -16.65625 28.398438 -15.765625 30.546875 -15.765625 C 32.203125 -15.765625 33.378906 -16.257812 34.078125 -17.25 C 34.785156 -18.25 35.203125 -19.390625 35.328125 -20.671875 C 35.453125 -21.960938 35.515625 -23.847656 35.515625 -26.328125 L 35.515625 -35.140625 L 57.125 -35.140625 L 57.125 -29.921875 C 57.125 -19.328125 55.070312 -11.523438 50.96875 -6.515625 C 46.875 -1.503906 39.820312 1 29.8125 1 Z M 35.515625 -54.265625 L 35.515625 -65.9375 C 35.515625 -72.476562 33.898438 -75.75 30.671875 -75.75 C 27.023438 -75.75 25.203125 -72.476562 25.203125 -65.9375 L 25.203125 -54.265625 Z M 35.515625 -54.265625 "/></g></g></g></g></g></g></svg>